<svg id="visual" viewBox="0 0 2560 1440" width="2560" height="1440" xmlns="http://www.w3.org/2000/svg" xmlns:xlink="http://www.w3.org/1999/xlink" version="1.1"><rect width="2560" height="1440" fill="#b2c2ce"></rect><g><g transform="translate(2106 1240)"><path d="M0 -171.6L121.4 -121.4L171.6 0L121.4 121.4L0 171.6L-121.4 121.4L-171.6 0L-121.4 -121.4Z" fill="none" stroke="#001122" stroke-width="1"></path></g><g transform="translate(2171 310)"><path d="M0 -37L26.2 -26.2L37 0L26.2 26.2L0 37L-26.2 26.2L-37 0L-26.2 -26.2Z" fill="none" stroke="#001122" stroke-width="1"></path></g><g transform="translate(609 1090)"><path d="M0 -26L18.4 -18.4L26 0L18.4 18.4L0 26L-18.4 18.4L-26 0L-18.4 -18.4Z" fill="none" stroke="#001122" stroke-width="1"></path></g><g transform="translate(1663 550)"><path d="M0 -160L113.1 -113.1L160 0L113.1 113.1L0 160L-113.1 113.1L-160 0L-113.1 -113.1Z" fill="none" stroke="#001122" stroke-width="1"></path></g><g transform="translate(348 353)"><path d="M0 -116L82 -82L116 0L82 82L0 116L-82 82L-116 0L-82 -82Z" fill="none" stroke="#001122" stroke-width="1"></path></g><g transform="translate(1240 1275)"><path d="M0 -84L59.4 -59.4L84 0L59.4 59.4L0 84L-59.4 59.4L-84 0L-59.4 -59.4Z" fill="none" stroke="#001122" stroke-width="1"></path></g><g transform="translate(844 453)"><path d="M0 -35L24.7 -24.7L35 0L24.7 24.7L0 35L-24.7 24.7L-35 0L-24.7 -24.7Z" fill="none" stroke="#001122" stroke-width="1"></path></g><g transform="translate(2210 771)"><path d="M0 -146L103.2 -103.2L146 0L103.2 103.2L0 146L-103.2 103.2L-146 0L-103.2 -103.2Z" fill="none" stroke="#001122" stroke-width="1"></path></g><g transform="translate(1074 130)"><path d="M0 -22L15.6 -15.6L22 0L15.6 15.6L0 22L-15.6 15.6L-22 0L-15.6 -15.6Z" fill="none" stroke="#001122" stroke-width="1"></path></g><g transform="translate(115 615)"><path d="M0 -155L109.6 -109.6L155 0L109.6 109.6L0 155L-109.6 109.6L-155 0L-109.6 -109.6Z" fill="none" stroke="#001122" stroke-width="1"></path></g><g transform="translate(1675 927)"><path d="M0 -41L29 -29L41 0L29 29L0 41L-29 29L-41 0L-29 -29Z" fill="none" stroke="#001122" stroke-width="1"></path></g><g transform="translate(1192 862)"><path d="M0 -22L15.6 -15.6L22 0L15.6 15.6L0 22L-15.6 15.6L-22 0L-15.6 -15.6Z" fill="none" stroke="#001122" stroke-width="1"></path></g><g transform="translate(64 1017)"><path d="M0 -98L69.3 -69.3L98 0L69.3 69.3L0 98L-69.3 69.3L-98 0L-69.3 -69.3Z" stroke="#001122" fill="none" stroke-width="1"></path></g><g transform="translate(1287 469)"><path d="M0 -120L84.9 -84.9L120 0L84.9 84.9L0 120L-84.9 84.9L-120 0L-84.9 -84.9Z" stroke="#001122" fill="none" stroke-width="1"></path></g><g transform="translate(453 719)"><path d="M0 -132L93.3 -93.3L132 0L93.3 93.3L0 132L-93.3 93.3L-132 0L-93.3 -93.3Z" stroke="#001122" fill="none" stroke-width="1"></path></g><g transform="translate(1932 22)"><path d="M0 -166L117.4 -117.4L166 0L117.4 117.4L0 166L-117.4 117.4L-166 0L-117.4 -117.4Z" stroke="#001122" fill="none" stroke-width="1"></path></g><g transform="translate(2541 1187)"><path d="M0 -138L97.6 -97.6L138 0L97.6 97.6L0 138L-97.6 97.6L-138 0L-97.6 -97.6Z" stroke="#001122" fill="none" stroke-width="1"></path></g><g transform="translate(1613 1278)"><path d="M0 -108L76.4 -76.4L108 0L76.4 76.4L0 108L-76.4 76.4L-108 0L-76.4 -76.4Z" stroke="#001122" fill="none" stroke-width="1"></path></g><g transform="translate(699 29)"><path d="M0 -142L100.4 -100.4L142 0L100.4 100.4L0 142L-100.4 100.4L-142 0L-100.4 -100.4Z" stroke="#001122" fill="none" stroke-width="1"></path></g><g transform="translate(865 1424)"><path d="M0 -122L86.3 -86.3L122 0L86.3 86.3L0 122L-86.3 86.3L-122 0L-86.3 -86.3Z" stroke="#001122" fill="none" stroke-width="1"></path></g><g transform="translate(2486 37)"><path d="M0 -120L84.9 -84.9L120 0L84.9 84.9L0 120L-84.9 84.9L-120 0L-84.9 -84.9Z" stroke="#001122" fill="none" stroke-width="1"></path></g><g transform="translate(175 13)"><path d="M0 -112L79.2 -79.2L112 0L79.2 79.2L0 112L-79.2 79.2L-112 0L-79.2 -79.2Z" stroke="#001122" fill="none" stroke-width="1"></path></g><g transform="translate(321 1300)"><path d="M0 -38L26.9 -26.9L38 0L26.9 26.9L0 38L-26.9 26.9L-38 0L-26.9 -26.9Z" stroke="#001122" fill="none" stroke-width="1"></path></g><g transform="translate(1603 210)"><path d="M0 -81L57.3 -57.3L81 0L57.3 57.3L0 81L-57.3 57.3L-81 0L-57.3 -57.3Z" stroke="#001122" fill="none" stroke-width="1"></path></g><g transform="translate(2557 599)"><path d="M0 -117L82.7 -82.7L117 0L82.7 82.7L0 117L-82.7 82.7L-117 0L-82.7 -82.7Z" stroke="#001122" fill="none" stroke-width="1"></path></g></g></svg>