<svg id="visual" viewBox="0 0 2560 1440" width="2560" height="1440" xmlns="http://www.w3.org/2000/svg" xmlns:xlink="http://www.w3.org/1999/xlink" version="1.1"><rect width="2560" height="1440" fill="#b2c2ce"></rect><g><g transform="translate(2467 782)"><path d="M0 -171.6L121.4 -121.4L171.6 0L121.4 121.4L0 171.6L-121.4 121.4L-171.6 0L-121.4 -121.4Z" stroke="#001122" fill="none" stroke-width="1"></path></g><g transform="translate(1957 858)"><path d="M0 -150L106.1 -106.1L150 0L106.1 106.1L0 150L-106.1 106.1L-150 0L-106.1 -106.1Z" stroke="#001122" fill="none" stroke-width="1"></path></g><g transform="translate(329 1049)"><path d="M0 -131L92.6 -92.6L131 0L92.6 92.6L0 131L-92.6 92.6L-131 0L-92.6 -92.6Z" stroke="#001122" fill="none" stroke-width="1"></path></g><g transform="translate(1474 1215)"><path d="M0 -98L69.3 -69.3L98 0L69.3 69.3L0 98L-69.3 69.3L-98 0L-69.3 -69.3Z" stroke="#001122" fill="none" stroke-width="1"></path></g><g transform="translate(1430 147)"><path d="M0 -40L28.3 -28.3L40 0L28.3 28.3L0 40L-28.3 28.3L-40 0L-28.3 -28.3Z" stroke="#001122" fill="none" stroke-width="1"></path></g><g transform="translate(2026 42)"><path d="M0 -60L42.4 -42.4L60 0L42.4 42.4L0 60L-42.4 42.4L-60 0L-42.4 -42.4Z" stroke="#001122" fill="none" stroke-width="1"></path></g><g transform="translate(400 152)"><path d="M0 -117L82.7 -82.7L117 0L82.7 82.7L0 117L-82.7 82.7L-117 0L-82.7 -82.7Z" stroke="#001122" fill="none" stroke-width="1"></path></g><g transform="translate(2056 1250)"><path d="M0 -166L117.4 -117.4L166 0L117.4 117.4L0 166L-117.4 117.4L-166 0L-117.4 -117.4Z" stroke="#001122" fill="none" stroke-width="1"></path></g><g transform="translate(216 704)"><path d="M0 -162L114.6 -114.6L162 0L114.6 114.6L0 162L-114.6 114.6L-162 0L-114.6 -114.6Z" stroke="#001122" fill="none" stroke-width="1"></path></g><g transform="translate(1579 507)"><path d="M0 -124L87.7 -87.7L124 0L87.7 87.7L0 124L-87.7 87.7L-124 0L-87.7 -87.7Z" stroke="#001122" fill="none" stroke-width="1"></path></g><g transform="translate(787 1102)"><path d="M0 -77L54.4 -54.4L77 0L54.4 54.4L0 77L-54.4 54.4L-77 0L-54.4 -54.4Z" stroke="#001122" fill="none" stroke-width="1"></path></g><g transform="translate(1042 178)"><path d="M0 -33L23.3 -23.3L33 0L23.3 23.3L0 33L-23.3 23.3L-33 0L-23.3 -23.3Z" stroke="#001122" fill="none" stroke-width="1"></path></g><g transform="translate(711 683)"><path d="M0 -156L110.3 -110.3L156 0L110.3 110.3L0 156L-110.3 110.3L-156 0L-110.3 -110.3Z" stroke="#001122" fill="none" stroke-width="1"></path></g><g transform="translate(1144 717)"><path d="M0 -21L14.8 -14.8L21 0L14.8 14.8L0 21L-14.8 14.8L-21 0L-14.8 -14.8Z" stroke="#001122" fill="none" stroke-width="1"></path></g><g transform="translate(25 1275)"><path d="M0 -142L100.4 -100.4L142 0L100.4 100.4L0 142L-100.4 100.4L-142 0L-100.4 -100.4Z" stroke="#001122" fill="none" stroke-width="1"></path></g><g transform="translate(926 1427)"><path d="M0 -157L111 -111L157 0L111 111L0 157L-111 111L-157 0L-111 -111Z" stroke="#001122" fill="none" stroke-width="1"></path></g><g transform="translate(52 361)"><path d="M0 -30L21.2 -21.2L30 0L21.2 21.2L0 30L-21.2 21.2L-30 0L-21.2 -21.2Z" stroke="#001122" fill="none" stroke-width="1"></path></g><g transform="translate(2455 1307)"><path d="M0 -47L33.2 -33.2L47 0L33.2 33.2L0 47L-33.2 33.2L-47 0L-33.2 -33.2Z" stroke="#001122" fill="none" stroke-width="1"></path></g><g transform="translate(2368 228)"><path d="M0 -101L71.4 -71.4L101 0L71.4 71.4L0 101L-71.4 71.4L-101 0L-71.4 -71.4Z" stroke="#001122" fill="none" stroke-width="1"></path></g><g transform="translate(414 1394)"><path d="M0 -64L45.3 -45.3L64 0L45.3 45.3L0 64L-45.3 45.3L-64 0L-45.3 -45.3Z" stroke="#001122" fill="none" stroke-width="1"></path></g><g transform="translate(1943 400)"><path d="M0 -100L70.7 -70.7L100 0L70.7 70.7L0 100L-70.7 70.7L-100 0L-70.7 -70.7Z" stroke="#001122" fill="none" stroke-width="1"></path></g><g transform="translate(1141 1086)"><path d="M0 -99L70 -70L99 0L70 70L0 99L-70 70L-99 0L-70 -70Z" stroke="#001122" fill="none" stroke-width="1"></path></g><g transform="translate(1562 876)"><path d="M0 -27L19.1 -19.1L27 0L19.1 19.1L0 27L-19.1 19.1L-27 0L-19.1 -19.1Z" stroke="#001122" fill="none" stroke-width="1"></path></g><g transform="translate(717 324)"><path d="M0 -44L31.1 -31.1L44 0L31.1 31.1L0 44L-31.1 31.1L-44 0L-31.1 -31.1Z" stroke="#001122" fill="none" stroke-width="1"></path></g><g transform="translate(15 5)"><path d="M0 -95L67.2 -67.2L95 0L67.2 67.2L0 95L-67.2 67.2L-95 0L-67.2 -67.2Z" stroke="#001122" fill="none" stroke-width="1"></path></g></g></svg>